<svg id="svg" version="1.1" xmlns="http://www.w3.org/2000/svg" xmlns:xlink="http://www.w3.org/1999/xlink" width="400" height="400" viewBox="0, 0, 400,400"><g id="svgg"><path id="path0" d="M187.400 63.661 C 162.739 65.829,135.840 76.614,115.800 92.370 C 66.869 130.841,49.549 196.507,73.450 252.930 C 87.757 286.705,115.575 314.267,148.400 327.192 C 150.710 328.102,152.960 329.006,153.400 329.201 C 174.398 338.535,212.067 340.122,238.200 332.774 C 244.796 330.919,256.057 326.843,259.172 325.182 C 259.517 324.998,261.870 323.825,264.400 322.575 C 281.372 314.190,299.331 299.453,310.932 284.392 C 322.159 269.816,329.535 255.262,334.949 237.000 C 340.315 218.901,341.387 194.274,337.639 175.200 C 336.635 170.094,335.861 166.745,335.142 164.400 C 332.805 156.779,332.283 155.166,331.329 152.600 C 309.617 94.239,251.078 58.065,187.400 63.661 M217.200 80.586 C 251.754 85.404,279.844 102.253,301.066 130.891 C 310.550 143.688,319.215 164.722,321.544 180.600 C 321.770 182.140,322.190 184.930,322.477 186.800 C 323.173 191.322,323.175 208.982,322.482 213.800 C 321.366 221.551,321.078 223.164,319.985 227.800 C 303.426 298.010,229.103 338.106,160.200 314.001 C 137.515 306.065,115.410 289.412,102.000 270.155 C 96.115 261.703,90.890 252.181,88.307 245.200 C 87.860 243.990,87.368 242.820,87.214 242.600 C 86.939 242.207,85.318 237.113,83.587 231.200 C 79.243 216.365,78.491 193.992,81.779 177.465 C 88.365 144.368,107.114 117.142,136.400 98.149 C 139.673 96.026,153.944 88.778,156.000 88.195 C 156.550 88.039,157.540 87.682,158.200 87.402 C 166.463 83.896,180.731 80.796,193.000 79.840 C 197.062 79.523,213.132 80.019,217.200 80.586 M188.705 106.321 C 188.102 109.114,187.413 112.339,187.174 113.488 C 186.671 115.901,187.578 115.585,178.200 116.612 C 174.900 116.974,172.146 117.323,172.079 117.389 C 172.012 117.455,173.542 118.402,175.479 119.495 C 177.416 120.587,180.228 122.182,181.729 123.040 L 184.457 124.600 184.231 126.337 C 184.107 127.293,183.460 130.514,182.793 133.495 C 181.336 140.014,181.188 139.793,184.830 136.543 C 187.467 134.189,188.955 132.869,191.918 130.255 C 192.754 129.517,198.190 132.002,202.848 135.249 C 203.424 135.651,204.363 136.158,204.933 136.375 L 205.971 136.769 205.224 135.285 C 203.927 132.708,200.000 123.733,200.005 123.359 C 200.008 123.161,201.751 121.470,203.878 119.600 C 206.005 117.730,208.478 115.521,209.373 114.692 L 211.000 113.183 209.400 113.390 C 208.520 113.503,205.730 113.782,203.200 114.009 C 200.670 114.236,198.060 114.518,197.400 114.635 C 195.968 114.889,195.764 114.543,191.384 104.400 C 190.766 102.970,190.157 101.674,190.030 101.521 C 189.904 101.367,189.307 103.527,188.705 106.321 M272.033 154.112 C 271.884 155.534,269.030 167.876,268.789 168.141 C 268.618 168.329,265.355 168.811,261.539 169.213 C 257.722 169.614,254.515 169.956,254.410 169.971 C 254.098 170.018,259.547 173.323,263.300 175.362 C 265.225 176.409,266.800 177.478,266.800 177.738 C 266.800 177.998,266.250 180.728,265.579 183.805 C 263.507 193.295,263.106 192.835,268.931 187.646 C 271.714 185.167,274.094 182.972,274.219 182.769 C 274.677 182.029,275.775 182.453,280.342 185.134 C 286.718 188.876,288.000 189.595,288.000 189.435 C 288.000 189.283,286.286 185.305,285.400 183.400 C 281.660 175.358,281.504 176.453,287.105 171.484 C 289.693 169.189,292.055 167.016,292.354 166.655 C 293.045 165.823,293.173 165.821,285.000 166.767 C 277.393 167.648,278.517 168.141,276.217 162.911 C 273.586 156.930,272.071 153.744,272.033 154.112 M122.206 171.500 C 121.850 173.205,121.165 176.338,120.684 178.463 L 119.810 182.326 118.409 182.553 C 117.639 182.678,114.757 182.979,112.004 183.220 C 104.238 183.902,104.394 183.648,109.785 186.842 C 112.379 188.378,115.198 189.991,116.051 190.426 C 118.109 191.476,118.153 190.885,114.962 205.200 L 114.739 206.200 115.869 205.187 C 118.091 203.197,121.459 200.169,123.531 198.300 C 126.214 195.880,125.639 195.704,136.729 202.340 C 139.362 203.915,139.390 204.062,135.404 195.400 C 134.147 192.669,133.200 190.359,133.200 190.023 C 133.200 189.869,135.121 188.046,137.469 185.972 C 139.817 183.897,142.292 181.684,142.969 181.054 L 144.200 179.909 141.600 180.163 C 140.170 180.303,136.840 180.673,134.200 180.985 C 131.560 181.298,129.287 181.429,129.150 181.277 C 129.012 181.124,128.235 179.470,127.423 177.600 C 126.611 175.730,125.531 173.300,125.022 172.200 C 124.513 171.100,123.973 169.795,123.821 169.300 C 123.332 167.701,122.869 168.333,122.206 171.500 M178.796 212.825 C 177.542 218.429,178.057 217.912,173.180 218.458 C 167.768 219.065,167.707 219.180,171.662 221.338 C 176.771 224.127,176.437 223.479,175.402 228.600 C 174.912 231.020,174.558 233.056,174.614 233.125 C 174.671 233.194,176.243 231.889,178.108 230.225 C 182.138 226.629,181.086 226.740,185.803 229.412 C 190.546 232.098,190.434 232.191,188.212 227.404 C 186.051 222.749,186.075 223.016,187.700 221.677 C 189.597 220.114,193.226 216.691,193.104 216.580 C 193.047 216.528,190.963 216.703,188.473 216.971 C 183.813 217.471,182.800 217.207,182.800 215.493 C 182.800 215.311,182.197 213.866,181.459 212.282 C 180.722 210.697,180.045 209.169,179.955 208.888 C 179.865 208.606,179.344 210.377,178.796 212.825 M214.202 270.694 C 213.842 272.402,213.135 275.600,212.630 277.800 L 211.713 281.800 204.556 282.650 C 200.620 283.117,197.310 283.525,197.200 283.556 C 197.090 283.587,198.170 284.265,199.600 285.062 C 210.422 291.095,210.060 290.713,208.962 294.942 C 208.216 297.816,206.828 304.949,206.984 305.112 C 207.043 305.174,209.410 303.154,212.245 300.624 C 218.404 295.127,217.255 295.241,224.576 299.403 C 227.863 301.271,230.600 302.800,230.659 302.800 C 230.823 302.800,229.723 299.795,229.250 298.953 C 227.763 296.304,224.907 289.315,225.223 289.099 C 225.320 289.033,227.110 287.450,229.200 285.581 C 231.290 283.713,233.681 281.602,234.514 280.892 L 236.028 279.600 234.616 279.600 C 233.839 279.600,230.572 279.887,227.355 280.239 C 220.494 280.988,221.138 281.299,219.001 276.200 C 218.172 274.220,217.362 272.420,217.203 272.200 C 217.043 271.980,216.590 270.939,216.197 269.887 C 215.167 267.133,214.933 267.227,214.202 270.694 " stroke="none" fill="#fafafb" fill-rule="evenodd"></path><path id="path1" d="M192.214 1.498 C 190.901 1.579,189.641 1.791,189.414 1.970 C 189.186 2.149,184.950 2.621,180.000 3.020 C 175.050 3.418,170.910 3.860,170.800 4.003 C 170.690 4.145,168.009 4.469,164.843 4.721 C 161.676 4.974,159.004 5.263,158.905 5.362 C 158.691 5.576,159.501 14.834,159.756 15.089 C 160.029 15.362,170.951 14.328,171.400 13.986 C 172.138 13.424,179.600 13.052,179.600 13.577 C 179.600 13.837,179.166 14.983,178.636 16.125 C 175.992 21.819,175.200 23.585,175.200 23.782 C 175.200 23.901,174.677 25.123,174.038 26.499 C 171.730 31.467,170.816 33.597,170.567 34.589 C 170.427 35.145,170.174 35.600,170.004 35.600 C 169.834 35.600,169.358 36.678,168.947 37.997 C 168.536 39.315,168.079 40.395,167.931 40.397 C 167.783 40.398,167.445 41.075,167.181 41.900 C 166.916 42.725,166.283 44.300,165.775 45.400 C 165.268 46.500,164.724 47.923,164.567 48.562 L 164.282 49.724 166.441 49.476 C 167.628 49.339,171.120 49.024,174.200 48.777 C 177.280 48.529,180.160 48.171,180.600 47.980 C 181.040 47.790,184.820 47.436,189.000 47.194 C 198.759 46.627,198.400 46.711,198.400 45.016 C 198.400 44.263,198.220 43.536,198.000 43.400 C 197.780 43.264,197.600 41.926,197.600 40.426 C 197.600 38.927,197.484 37.122,197.343 36.415 L 197.086 35.131 192.843 35.412 C 190.509 35.567,188.420 35.830,188.200 35.997 C 187.403 36.602,181.600 36.727,181.600 36.140 C 181.600 35.843,181.771 35.600,181.980 35.600 C 182.188 35.600,182.671 34.610,183.053 33.400 C 183.434 32.190,183.884 31.200,184.053 31.200 C 184.221 31.200,184.671 30.210,185.053 29.000 C 185.434 27.790,185.893 26.800,186.073 26.800 C 186.253 26.800,186.400 26.612,186.400 26.383 C 186.400 25.995,187.535 23.399,189.803 18.600 C 190.323 17.500,190.976 15.925,191.255 15.100 C 191.533 14.275,191.895 13.600,192.060 13.600 C 192.224 13.600,192.671 12.610,193.053 11.400 C 193.434 10.190,193.879 9.200,194.041 9.200 C 194.203 9.200,194.647 8.255,195.027 7.100 C 195.407 5.945,195.830 4.910,195.967 4.800 C 196.358 4.486,197.200 2.425,197.200 1.781 C 197.200 1.377,196.805 1.223,195.900 1.276 C 195.185 1.317,193.526 1.417,192.214 1.498 M243.012 10.500 C 242.621 12.755,242.166 14.780,242.001 15.000 C 241.835 15.220,241.401 17.110,241.035 19.200 C 240.669 21.290,240.208 23.360,240.009 23.800 C 239.811 24.240,239.344 26.400,238.971 28.600 C 238.598 30.800,238.160 32.780,237.997 33.000 C 237.834 33.220,237.401 35.110,237.035 37.200 C 236.669 39.290,236.209 41.360,236.012 41.800 C 235.354 43.273,234.454 49.383,234.829 49.834 C 235.027 50.073,237.082 50.593,239.395 50.990 C 241.708 51.386,243.600 51.833,243.600 51.982 C 243.600 52.132,244.995 52.582,246.700 52.984 C 248.405 53.386,250.160 53.941,250.600 54.218 C 251.040 54.495,252.009 54.849,252.754 55.004 C 253.499 55.160,254.967 55.719,256.017 56.246 C 257.068 56.774,258.483 57.317,259.163 57.453 C 259.844 57.589,260.400 57.841,260.400 58.012 C 260.400 58.302,263.729 59.600,264.471 59.600 C 264.652 59.600,264.800 59.388,264.800 59.130 C 264.800 58.699,266.895 54.072,268.237 51.538 C 269.092 49.926,268.967 49.719,266.700 48.979 C 265.545 48.602,264.398 48.135,264.151 47.941 C 263.905 47.746,262.735 47.302,261.551 46.953 C 260.368 46.604,259.220 46.174,259.000 45.997 C 258.780 45.820,257.520 45.374,256.200 45.006 C 254.880 44.638,253.229 44.080,252.532 43.765 C 251.834 43.450,250.709 43.082,250.032 42.946 C 248.618 42.664,248.660 42.831,249.255 39.867 C 249.686 37.721,250.077 37.154,250.572 37.954 C 250.692 38.149,252.008 38.633,253.495 39.030 C 254.983 39.426,256.290 39.880,256.401 40.039 C 256.512 40.197,257.761 40.627,259.177 40.994 C 260.594 41.361,262.118 41.918,262.565 42.231 C 263.821 43.110,264.682 42.926,264.986 41.714 C 265.136 41.117,265.594 39.891,266.004 38.991 C 267.785 35.081,267.951 32.400,266.413 32.400 C 265.966 32.400,265.600 32.250,265.600 32.067 C 265.600 31.884,264.250 31.398,262.600 30.987 C 260.950 30.576,259.600 30.126,259.600 29.987 C 259.600 29.848,258.240 29.395,256.578 28.981 C 252.730 28.023,252.537 27.789,253.207 24.886 C 253.497 23.629,253.863 22.420,254.021 22.200 C 254.179 21.980,254.433 21.215,254.586 20.500 C 254.864 19.200,255.989 18.997,257.400 19.993 C 257.620 20.148,258.970 20.592,260.400 20.980 C 261.830 21.369,263.180 21.823,263.400 21.990 C 263.620 22.157,264.790 22.612,266.000 23.000 C 267.210 23.388,268.402 23.865,268.649 24.059 C 268.895 24.254,270.020 24.687,271.149 25.022 C 272.277 25.357,273.200 25.775,273.200 25.951 C 273.200 26.446,277.410 27.758,278.122 27.485 C 278.470 27.352,278.982 26.468,279.258 25.521 C 279.535 24.575,279.900 23.703,280.069 23.584 C 280.470 23.302,281.601 20.089,281.595 19.250 C 281.591 18.563,279.730 17.558,276.900 16.713 C 275.965 16.434,275.200 16.089,275.200 15.947 C 275.200 15.805,273.985 15.365,272.500 14.969 C 271.015 14.573,269.710 14.121,269.600 13.964 C 269.490 13.808,268.320 13.378,267.000 13.008 C 265.680 12.639,264.060 12.100,263.400 11.809 C 262.740 11.519,261.165 11.054,259.900 10.777 C 258.635 10.500,257.600 10.134,257.600 9.964 C 257.600 9.794,256.205 9.347,254.500 8.970 C 252.795 8.594,251.310 8.169,251.200 8.027 C 250.973 7.732,245.336 6.387,244.361 6.395 C 243.865 6.399,243.564 7.313,243.012 10.500 M109.611 23.245 C 109.068 23.462,108.528 23.776,108.411 23.943 C 108.295 24.109,107.570 24.493,106.800 24.796 C 106.030 25.098,104.984 25.663,104.475 26.050 C 103.966 26.438,102.931 26.959,102.175 27.208 C 101.296 27.498,100.800 27.918,100.800 28.371 C 100.800 29.335,101.612 31.600,101.957 31.600 C 102.110 31.600,102.570 32.410,102.978 33.400 C 103.387 34.390,103.828 35.202,103.960 35.205 C 104.092 35.207,104.557 35.972,104.994 36.905 C 105.431 37.837,105.894 38.690,106.023 38.800 C 106.152 38.910,107.042 40.440,108.000 42.200 C 108.958 43.960,109.850 45.490,109.982 45.600 C 110.114 45.710,110.559 46.565,110.972 47.500 C 111.384 48.435,111.845 49.200,111.996 49.200 C 112.147 49.200,112.607 50.190,113.018 51.400 C 113.429 52.610,113.908 53.600,114.083 53.600 C 114.257 53.600,114.400 54.410,114.400 55.400 C 114.400 56.390,114.220 57.200,114.000 57.200 C 113.780 57.200,113.600 57.448,113.600 57.750 C 113.600 59.915,108.035 62.207,105.236 61.195 C 103.986 60.743,101.600 58.710,101.600 58.097 C 101.600 57.977,101.015 57.089,100.300 56.125 C 99.585 55.161,98.511 53.704,97.914 52.886 C 97.316 52.069,96.558 51.040,96.229 50.600 C 93.451 46.883,92.800 45.959,92.800 45.730 C 92.800 45.585,92.529 45.182,92.197 44.834 C 91.866 44.485,90.886 43.210,90.021 42.000 C 89.156 40.790,88.197 39.530,87.889 39.200 C 87.582 38.870,87.215 38.281,87.074 37.891 C 86.572 36.499,82.760 37.833,81.200 39.947 C 81.090 40.096,80.493 40.541,79.874 40.936 C 79.254 41.330,78.444 41.901,78.074 42.205 C 77.703 42.509,76.960 43.103,76.423 43.525 L 75.446 44.292 77.614 47.046 C 78.807 48.561,80.652 50.880,81.713 52.200 C 82.774 53.520,83.948 55.008,84.321 55.506 C 84.694 56.004,85.393 56.904,85.874 57.506 C 86.355 58.108,87.396 59.410,88.188 60.400 C 88.980 61.390,89.936 62.621,90.314 63.135 C 90.691 63.649,91.405 64.480,91.900 64.981 C 92.395 65.482,92.800 66.064,92.800 66.274 C 92.800 66.484,93.205 67.023,93.700 67.471 C 94.195 67.919,94.884 68.627,95.231 69.043 C 96.471 70.530,99.661 73.200,100.197 73.200 C 100.497 73.200,101.058 73.515,101.442 73.900 C 102.403 74.861,108.533 75.104,110.000 74.238 C 110.550 73.914,111.585 73.376,112.300 73.044 C 113.015 72.712,113.601 72.297,113.601 72.120 C 113.602 71.944,114.398 71.473,115.369 71.074 C 116.340 70.675,117.234 70.090,117.355 69.774 C 117.476 69.458,117.763 69.200,117.992 69.200 C 118.221 69.200,119.500 68.435,120.834 67.500 C 122.167 66.565,123.688 65.519,124.214 65.174 C 125.898 64.073,127.157 62.436,127.427 60.999 C 127.571 60.229,127.849 59.600,128.045 59.600 C 128.536 59.600,128.495 56.106,128.000 55.800 C 127.780 55.664,127.600 55.186,127.600 54.737 C 127.600 53.961,124.531 47.220,123.986 46.800 C 123.843 46.690,123.404 45.745,123.009 44.700 C 122.614 43.655,122.175 42.800,122.034 42.800 C 121.892 42.800,121.427 41.900,121.000 40.800 C 120.573 39.700,120.119 38.800,119.991 38.800 C 119.863 38.800,119.434 37.900,119.039 36.800 C 118.643 35.700,118.193 34.800,118.039 34.800 C 117.884 34.800,117.434 33.900,117.039 32.800 C 116.643 31.700,116.193 30.800,116.039 30.800 C 115.884 30.800,115.434 29.900,115.039 28.800 C 114.643 27.700,114.197 26.800,114.048 26.800 C 113.898 26.800,113.427 25.900,113.000 24.800 C 112.176 22.677,111.645 22.434,109.611 23.245 M311.952 36.900 C 311.621 37.175,310.642 38.477,309.775 39.793 C 308.909 41.109,307.885 42.538,307.500 42.969 C 307.115 43.399,306.800 43.993,306.800 44.288 C 306.800 44.583,306.554 44.919,306.254 45.035 C 305.953 45.150,305.368 45.952,304.954 46.818 C 304.539 47.683,304.070 48.393,303.910 48.395 C 303.751 48.398,303.336 48.950,302.989 49.621 C 302.642 50.293,302.052 51.165,301.679 51.559 C 301.305 51.952,300.640 52.879,300.200 53.618 C 298.971 55.682,298.642 56.181,298.093 56.815 C 297.315 57.713,295.710 60.064,294.963 61.400 C 294.594 62.060,294.046 62.744,293.746 62.920 C 293.446 63.096,293.200 63.467,293.200 63.744 C 293.200 64.022,292.885 64.598,292.500 65.025 C 291.607 66.014,288.253 70.896,287.743 71.950 C 287.596 72.252,287.729 72.641,288.038 72.815 C 288.347 72.989,289.140 73.596,289.800 74.165 C 290.460 74.734,291.108 75.199,291.241 75.200 C 291.450 75.200,292.486 76.070,294.834 78.220 C 295.182 78.539,295.634 78.800,295.839 78.800 C 296.257 78.800,299.600 74.645,299.600 74.126 C 299.600 73.943,299.960 73.568,300.400 73.293 C 300.840 73.018,301.200 72.590,301.200 72.342 C 301.200 72.095,301.605 71.482,302.100 70.981 C 302.595 70.480,303.314 69.649,303.697 69.135 C 304.081 68.621,305.567 66.670,307.000 64.800 C 310.545 60.174,310.661 60.021,312.031 58.200 C 312.692 57.320,313.451 56.326,313.717 55.991 C 313.983 55.656,315.010 54.306,316.000 52.991 C 316.990 51.676,318.026 50.361,318.303 50.069 C 318.579 49.777,318.998 49.178,319.233 48.739 C 319.675 47.913,320.388 47.026,321.844 45.490 C 323.802 43.426,323.433 42.800,318.039 39.022 C 314.609 36.620,312.974 36.050,311.952 36.900 M186.200 59.257 C 183.780 59.447,181.440 59.765,181.000 59.963 C 180.560 60.162,177.978 60.621,175.262 60.983 C 172.546 61.345,170.026 61.804,169.662 62.003 C 169.298 62.202,167.471 62.657,165.603 63.014 C 163.734 63.371,162.022 63.815,161.799 64.001 C 161.576 64.186,160.182 64.619,158.703 64.962 C 157.223 65.305,155.694 65.759,155.306 65.972 C 154.918 66.184,153.610 66.665,152.400 67.040 C 151.190 67.416,149.840 67.941,149.400 68.207 C 148.960 68.474,147.745 68.920,146.700 69.198 C 145.655 69.476,144.800 69.831,144.800 69.987 C 144.800 70.143,143.810 70.607,142.600 71.018 C 141.390 71.429,140.400 71.873,140.400 72.004 C 140.400 72.135,139.500 72.566,138.400 72.961 C 137.300 73.357,136.400 73.807,136.400 73.961 C 136.400 74.116,135.500 74.566,134.400 74.961 C 133.300 75.357,132.400 75.823,132.400 75.997 C 132.400 76.171,131.725 76.611,130.900 76.975 C 129.508 77.588,127.010 79.007,125.600 79.985 C 124.531 80.726,118.697 84.588,118.024 85.000 C 117.665 85.220,117.107 85.626,116.785 85.902 C 116.463 86.178,114.310 87.867,112.000 89.655 C 107.085 93.460,107.408 93.168,100.200 100.324 C 94.859 105.628,91.816 108.878,90.314 110.884 C 89.684 111.725,87.525 114.450,86.202 116.074 C 85.900 116.444,85.328 117.254,84.932 117.874 C 84.535 118.493,84.000 119.221,83.743 119.491 C 83.485 119.761,83.034 120.526,82.740 121.191 C 82.446 121.856,82.073 122.400,81.913 122.400 C 81.752 122.400,81.321 122.985,80.954 123.700 C 80.588 124.415,80.158 125.090,79.998 125.200 C 79.838 125.310,79.317 126.120,78.839 127.000 C 78.361 127.880,77.542 129.320,77.018 130.200 C 75.281 133.117,68.800 146.329,68.800 146.952 C 68.800 147.117,68.362 148.209,67.827 149.379 C 67.292 150.549,66.732 152.157,66.582 152.953 C 66.433 153.749,66.176 154.400,66.010 154.400 C 65.844 154.400,65.369 155.840,64.954 157.599 C 64.540 159.359,64.084 160.799,63.942 160.799 C 63.801 160.800,63.363 162.510,62.969 164.600 C 62.575 166.690,62.126 168.400,61.970 168.400 C 61.814 168.400,61.383 170.515,61.012 173.100 C 60.641 175.685,60.181 178.160,59.989 178.600 C 58.254 182.574,58.248 218.217,59.981 222.200 C 60.172 222.640,60.634 224.980,61.007 227.400 C 61.379 229.820,61.823 231.980,61.993 232.200 C 62.163 232.420,62.517 233.860,62.780 235.400 C 63.043 236.940,63.506 238.740,63.808 239.400 C 64.111 240.060,64.654 241.770,65.015 243.200 C 65.376 244.630,65.816 245.980,65.993 246.200 C 66.169 246.420,66.627 247.725,67.010 249.100 C 67.392 250.475,67.839 251.600,68.003 251.600 C 68.166 251.600,68.403 252.116,68.529 252.747 C 68.656 253.378,69.371 255.223,70.118 256.847 C 70.866 258.471,71.987 260.925,72.609 262.300 C 73.231 263.675,73.864 264.800,74.016 264.800 C 74.167 264.800,74.614 265.655,75.009 266.700 C 75.404 267.745,75.844 268.690,75.987 268.800 C 76.130 268.910,76.698 269.810,77.249 270.800 C 77.799 271.790,78.508 273.040,78.825 273.578 C 79.777 275.199,85.247 283.313,86.254 284.600 C 86.770 285.260,87.510 286.226,87.896 286.746 C 88.773 287.924,90.347 289.823,91.400 290.973 C 91.840 291.454,92.675 292.467,93.257 293.224 C 95.299 295.884,104.840 305.219,108.709 308.343 C 109.429 308.924,110.407 309.805,110.881 310.300 C 111.356 310.795,111.916 311.200,112.126 311.200 C 112.336 311.200,112.913 311.605,113.407 312.100 C 114.711 313.407,117.802 315.600,118.339 315.600 C 118.593 315.600,118.800 315.746,118.800 315.924 C 118.800 316.338,123.707 319.600,124.331 319.600 C 124.589 319.600,124.800 319.767,124.800 319.971 C 124.800 320.175,125.295 320.600,125.900 320.916 C 127.897 321.959,130.997 323.749,131.200 323.976 C 131.417 324.219,139.004 328.001,143.219 329.966 C 144.659 330.638,146.414 331.303,147.119 331.444 C 147.823 331.585,148.400 331.845,148.400 332.022 C 148.400 332.199,149.435 332.643,150.700 333.009 C 151.965 333.376,153.183 333.826,153.408 334.010 C 153.632 334.194,155.072 334.653,156.608 335.031 C 158.143 335.408,159.585 335.859,159.811 336.033 C 160.037 336.207,161.567 336.642,163.211 336.999 C 164.855 337.356,166.560 337.815,167.000 338.019 C 167.893 338.434,174.397 339.600,175.819 339.600 C 176.322 339.600,176.793 339.762,176.867 339.961 C 177.108 340.614,193.995 342.062,201.400 342.063 C 208.501 342.065,224.603 340.714,225.946 340.004 C 226.306 339.813,228.580 339.354,231.000 338.984 C 233.420 338.613,235.490 338.183,235.600 338.028 C 235.710 337.873,237.420 337.415,239.400 337.009 C 241.380 336.603,243.090 336.154,243.200 336.011 C 243.310 335.868,244.660 335.418,246.200 335.012 C 247.740 334.605,249.090 334.157,249.200 334.017 C 249.310 333.876,250.534 333.424,251.919 333.012 C 253.305 332.599,254.523 332.125,254.627 331.957 C 254.730 331.790,255.801 331.366,257.007 331.015 C 258.213 330.664,259.200 330.236,259.200 330.062 C 259.200 329.888,260.190 329.434,261.400 329.053 C 262.610 328.671,263.600 328.224,263.600 328.059 C 263.600 327.893,264.500 327.434,265.600 327.039 C 266.700 326.643,267.600 326.187,267.600 326.024 C 267.600 325.861,268.329 325.488,269.220 325.194 C 270.110 324.900,270.965 324.461,271.120 324.218 C 271.274 323.976,272.165 323.440,273.100 323.028 C 274.035 322.616,274.800 322.138,274.800 321.966 C 274.800 321.794,275.201 321.527,275.691 321.371 C 276.425 321.138,279.269 319.389,281.007 318.101 C 281.231 317.936,282.491 317.084,283.807 316.209 C 285.991 314.757,289.107 312.493,289.600 312.000 C 289.710 311.890,291.235 310.630,292.989 309.200 C 298.397 304.791,304.852 298.579,309.000 293.794 C 310.100 292.525,311.303 291.164,311.673 290.770 C 312.044 290.376,312.670 289.546,313.066 288.927 C 313.462 288.307,314.104 287.565,314.493 287.277 C 314.882 286.990,315.200 286.501,315.200 286.191 C 315.200 285.882,315.560 285.435,316.000 285.200 C 316.440 284.965,316.800 284.600,316.800 284.389 C 316.800 284.061,318.683 281.324,320.039 279.681 C 320.275 279.395,320.684 278.765,320.948 278.281 C 321.213 277.796,322.135 276.320,322.999 275.000 C 324.701 272.396,325.966 270.195,327.018 268.000 C 327.388 267.230,327.805 266.510,327.945 266.400 C 328.499 265.965,333.037 256.266,333.419 254.700 C 333.566 254.095,333.823 253.600,333.991 253.600 C 334.158 253.600,334.609 252.475,334.994 251.100 C 335.378 249.725,335.820 248.510,335.975 248.400 C 336.131 248.290,336.579 247.030,336.972 245.600 C 337.365 244.170,337.827 242.820,337.999 242.600 C 338.172 242.380,338.626 240.760,339.008 239.000 C 339.390 237.240,339.837 235.620,340.001 235.400 C 340.164 235.180,340.608 233.200,340.988 231.000 C 341.367 228.800,341.828 226.705,342.014 226.345 C 342.199 225.985,342.627 223.105,342.965 219.945 C 343.303 216.785,343.693 213.300,343.832 212.200 C 344.305 208.443,344.452 190.692,344.014 190.254 C 343.786 190.026,343.600 188.948,343.600 187.859 C 343.600 185.210,342.381 174.653,342.046 174.400 C 341.900 174.290,341.452 172.220,341.051 169.800 C 340.650 167.380,340.194 165.310,340.038 165.200 C 339.882 165.090,339.420 163.515,339.012 161.700 C 338.603 159.885,338.151 158.400,338.008 158.400 C 337.864 158.400,337.428 157.050,337.039 155.400 C 336.650 153.750,336.210 152.400,336.061 152.400 C 335.912 152.400,335.455 151.230,335.045 149.800 C 334.636 148.370,334.188 147.200,334.050 147.200 C 333.913 147.200,333.455 146.120,333.033 144.800 C 332.611 143.480,332.152 142.400,332.012 142.400 C 331.872 142.400,331.434 141.500,331.039 140.400 C 330.643 139.300,330.193 138.400,330.039 138.400 C 329.884 138.400,329.434 137.500,329.039 136.400 C 328.643 135.300,328.194 134.400,328.040 134.400 C 327.886 134.400,327.534 133.772,327.256 133.004 C 326.978 132.237,326.537 131.379,326.276 131.098 C 326.014 130.817,325.440 129.871,325.000 128.994 C 324.560 128.117,324.057 127.220,323.883 127.000 C 323.708 126.780,322.953 125.610,322.204 124.400 C 320.409 121.498,319.157 119.690,318.300 118.760 C 317.915 118.342,317.600 117.891,317.600 117.757 C 317.600 117.624,316.877 116.589,315.993 115.457 C 315.109 114.326,314.074 112.988,313.693 112.484 C 313.312 111.981,312.574 111.081,312.053 110.484 C 311.532 109.888,310.452 108.601,309.653 107.624 C 307.604 105.120,298.174 95.715,295.791 93.800 C 294.696 92.920,293.565 91.885,293.277 91.500 C 292.990 91.115,292.560 90.800,292.323 90.800 C 292.086 90.800,291.482 90.395,290.981 89.900 C 290.480 89.405,289.649 88.682,289.135 88.292 C 287.454 87.020,284.131 84.613,283.208 84.000 C 282.712 83.670,281.597 82.897,280.731 82.282 C 279.865 81.667,278.717 80.996,278.179 80.792 C 277.640 80.587,277.200 80.263,277.200 80.071 C 277.200 79.879,276.435 79.384,275.500 78.972 C 274.565 78.559,273.710 78.107,273.600 77.966 C 273.490 77.825,271.960 76.965,270.200 76.055 C 268.440 75.145,266.820 74.256,266.600 74.080 C 266.380 73.904,265.346 73.409,264.301 72.980 C 263.257 72.551,262.402 72.094,262.401 71.965 C 262.401 71.836,261.365 71.386,260.100 70.965 C 258.835 70.544,257.580 69.993,257.311 69.740 C 257.042 69.487,255.917 69.048,254.811 68.764 C 253.705 68.481,252.800 68.118,252.800 67.957 C 252.800 67.797,251.540 67.341,250.000 66.944 C 248.460 66.547,247.200 66.107,247.200 65.966 C 247.200 65.825,245.760 65.369,244.001 64.954 C 242.241 64.540,240.801 64.084,240.801 63.942 C 240.800 63.801,239.045 63.360,236.900 62.962 C 234.755 62.565,232.907 62.109,232.794 61.948 C 232.681 61.788,230.341 61.357,227.594 60.991 C 224.847 60.625,222.240 60.171,221.800 59.984 C 219.327 58.928,196.375 58.459,186.200 59.257 M210.543 62.801 C 213.811 63.013,217.501 63.368,218.743 63.589 C 219.984 63.811,223.160 64.342,225.800 64.768 C 234.135 66.116,246.630 69.544,251.460 71.809 C 252.154 72.134,252.855 72.400,253.019 72.400 C 253.969 72.400,265.342 77.865,270.200 80.655 C 271.080 81.161,272.340 81.876,273.000 82.244 C 277.610 84.818,288.239 92.477,292.600 96.369 C 295.505 98.960,305.812 109.363,307.494 111.400 C 310.623 115.190,313.032 118.202,313.615 119.053 C 322.333 131.778,325.104 136.730,330.591 149.400 C 330.877 150.060,331.241 151.050,331.400 151.600 C 331.559 152.150,331.918 153.140,332.198 153.800 C 333.910 157.834,336.693 167.722,337.771 173.600 C 338.115 175.470,338.559 177.810,338.760 178.800 C 340.621 187.986,340.726 207.701,338.979 219.920 C 331.165 274.569,290.645 319.477,236.256 333.768 C 232.822 334.670,228.061 335.630,221.068 336.830 C 213.402 338.146,191.986 338.252,183.200 337.018 C 173.998 335.726,160.096 332.407,154.800 330.239 C 154.030 329.924,151.690 329.004,149.600 328.194 C 139.989 324.471,130.919 319.479,119.446 311.600 C 112.841 307.064,103.876 298.897,96.373 290.581 C 89.176 282.604,81.257 270.654,76.241 260.200 C 74.974 257.560,73.705 254.950,73.420 254.400 C 73.136 253.850,72.677 252.680,72.399 251.800 C 72.122 250.920,71.763 250.020,71.601 249.800 C 71.439 249.580,70.996 248.410,70.618 247.200 C 70.239 245.990,69.679 244.440,69.373 243.756 C 69.066 243.072,68.611 241.542,68.360 240.356 C 68.109 239.170,67.737 237.880,67.532 237.489 C 66.785 236.061,65.061 227.929,63.528 218.600 C 62.479 212.214,62.205 190.025,63.110 184.800 C 63.358 183.370,63.924 179.835,64.368 176.945 C 64.812 174.055,65.352 171.265,65.567 170.745 C 65.783 170.225,66.152 168.810,66.387 167.600 C 67.096 163.960,70.830 152.108,71.618 151.000 C 71.774 150.780,72.034 150.150,72.195 149.600 C 72.979 146.921,79.101 134.365,81.361 130.800 C 82.128 129.590,83.613 127.250,84.661 125.600 C 95.936 107.848,116.588 88.647,133.600 80.101 C 134.150 79.825,135.590 79.047,136.800 78.373 C 139.151 77.063,149.285 72.400,149.782 72.400 C 149.945 72.400,150.646 72.134,151.340 71.809 C 156.815 69.242,171.735 65.284,180.000 64.205 C 182.530 63.875,184.967 63.503,185.416 63.378 C 188.233 62.593,202.337 62.270,210.543 62.801 M348.737 70.911 C 347.712 71.840,345.838 73.500,344.573 74.600 C 343.307 75.700,341.694 77.140,340.988 77.800 C 340.282 78.460,338.658 79.900,337.380 81.000 C 334.333 83.623,331.997 85.656,331.176 86.400 C 330.812 86.730,329.480 87.900,328.216 89.000 C 326.952 90.100,325.421 91.450,324.814 92.000 C 324.206 92.550,322.335 94.235,320.655 95.744 C 317.110 98.929,317.218 98.627,318.945 100.513 C 319.685 101.320,320.757 102.571,321.326 103.291 C 325.581 108.672,325.548 108.671,330.582 103.618 C 334.507 99.678,334.556 99.645,335.166 100.518 C 335.830 101.467,336.009 101.695,338.175 104.338 C 338.959 105.294,339.601 106.194,339.602 106.338 C 339.607 106.958,338.216 110.400,337.961 110.400 C 337.807 110.400,337.357 111.300,336.961 112.400 C 336.566 113.500,336.122 114.400,335.975 114.400 C 335.829 114.400,335.386 115.255,334.991 116.300 C 334.596 117.345,334.099 118.315,333.885 118.455 C 333.547 118.678,335.325 123.019,335.992 123.600 C 336.119 123.710,336.559 124.565,336.972 125.500 C 337.384 126.435,337.838 127.200,337.980 127.200 C 338.123 127.200,338.478 127.875,338.770 128.700 C 339.659 131.210,340.914 132.042,341.483 130.500 C 341.625 130.115,341.859 129.710,342.002 129.600 C 342.145 129.490,342.544 128.860,342.888 128.200 C 344.010 126.047,346.648 121.058,348.079 118.380 C 348.850 116.938,349.561 115.517,349.660 115.220 C 349.799 114.804,351.115 114.671,355.387 114.640 C 359.439 114.611,360.978 114.465,361.100 114.100 C 361.192 113.825,361.531 113.600,361.853 113.600 C 362.686 113.600,364.940 112.394,365.320 111.746 C 365.496 111.446,365.867 111.200,366.144 111.200 C 366.845 111.200,370.117 107.561,371.463 105.286 C 372.680 103.228,373.184 95.944,372.154 95.285 C 371.909 95.128,371.594 94.635,371.455 94.188 C 371.012 92.766,368.615 89.252,366.541 86.985 C 366.068 86.468,365.618 85.880,365.541 85.678 C 365.326 85.117,363.112 82.348,362.100 81.374 C 361.605 80.898,361.200 80.344,361.200 80.143 C 361.200 79.942,360.705 79.297,360.100 78.708 C 359.495 78.119,358.730 77.312,358.400 76.914 C 355.227 73.090,354.070 71.738,353.300 70.953 C 352.805 70.449,352.400 69.848,352.400 69.618 C 352.400 68.658,350.472 69.338,348.737 70.911 M49.780 71.952 C 49.571 72.145,48.723 72.520,47.896 72.784 C 47.069 73.048,46.169 73.482,45.896 73.749 C 45.623 74.015,44.994 74.513,44.498 74.855 C 44.002 75.198,42.433 76.991,41.011 78.839 C 39.589 80.688,38.150 82.485,37.813 82.834 C 37.476 83.182,37.200 83.632,37.199 83.834 C 37.199 84.035,36.658 84.830,35.997 85.600 C 35.337 86.370,34.695 87.315,34.571 87.700 C 34.447 88.085,34.207 88.400,34.036 88.400 C 33.866 88.400,33.387 89.030,32.972 89.800 C 32.557 90.570,32.120 91.200,32.000 91.200 C 31.880 91.200,31.428 91.875,30.995 92.700 C 30.562 93.525,30.005 94.331,29.756 94.491 C 29.508 94.650,29.079 95.325,28.804 95.991 C 28.528 96.656,28.144 97.200,27.950 97.200 C 27.756 97.200,27.286 97.920,26.904 98.800 C 26.523 99.680,26.078 100.400,25.916 100.400 C 23.916 100.400,24.388 104.096,26.509 105.038 C 27.439 105.451,28.549 106.107,28.975 106.495 C 29.402 106.883,29.974 107.200,30.247 107.200 C 30.520 107.200,31.019 107.477,31.357 107.815 C 31.695 108.153,32.653 108.713,33.486 109.060 C 34.319 109.406,35.090 109.826,35.200 109.991 C 35.310 110.157,36.120 110.683,37.000 111.161 C 37.880 111.639,39.320 112.461,40.200 112.988 C 41.080 113.516,42.520 114.343,43.400 114.827 C 44.280 115.311,45.090 115.821,45.200 115.960 C 45.310 116.099,46.163 116.569,47.095 117.006 C 48.028 117.443,48.793 117.908,48.795 118.039 C 48.798 118.171,49.565 118.618,50.500 119.034 C 51.435 119.450,52.549 120.107,52.975 120.495 C 53.402 120.883,53.959 121.200,54.214 121.200 C 54.469 121.200,55.084 121.552,55.580 121.983 C 56.076 122.413,57.094 122.967,57.841 123.214 C 58.588 123.460,59.200 123.801,59.200 123.970 C 59.200 124.140,59.921 124.604,60.802 125.001 C 61.684 125.398,62.606 125.966,62.851 126.262 C 63.383 126.902,64.800 126.982,64.800 126.372 C 64.800 126.137,65.340 125.159,66.000 124.200 C 66.660 123.241,67.200 122.285,67.200 122.077 C 67.200 121.868,67.473 121.471,67.807 121.194 C 68.141 120.917,68.720 120.040,69.092 119.245 C 69.465 118.450,70.001 117.562,70.285 117.271 C 71.142 116.392,70.885 115.993,68.900 115.121 C 67.855 114.662,66.910 114.160,66.800 114.007 C 66.690 113.853,65.745 113.404,64.700 113.009 C 63.655 112.614,62.800 112.172,62.800 112.026 C 62.800 111.880,62.215 111.544,61.500 111.279 C 59.169 110.416,58.919 110.142,59.719 109.320 C 60.559 108.457,62.140 106.068,63.050 104.289 C 63.412 103.580,63.954 102.856,64.254 102.680 C 64.554 102.504,64.800 102.072,64.800 101.719 C 64.800 101.143,65.588 101.105,72.500 101.346 L 80.200 101.616 83.000 98.661 C 90.916 90.307,90.836 90.963,83.992 90.584 C 81.127 90.426,78.686 90.140,78.568 89.948 C 78.450 89.757,77.508 89.599,76.476 89.597 C 75.444 89.596,73.385 89.480,71.900 89.339 L 69.200 89.084 69.200 87.616 C 69.200 85.310,68.394 81.537,67.769 80.912 C 67.456 80.599,67.200 80.130,67.200 79.869 C 67.200 79.323,62.585 74.800,62.028 74.800 C 61.824 74.800,61.419 74.566,61.129 74.279 C 60.443 73.603,57.410 72.400,56.392 72.400 C 55.956 72.400,55.600 72.220,55.600 72.000 C 55.600 71.505,50.310 71.461,49.780 71.952 M193.400 80.215 C 193.180 80.298,190.331 80.652,187.070 81.001 C 183.808 81.350,180.388 81.789,179.470 81.977 C 171.403 83.624,168.273 84.458,161.200 86.841 C 148.691 91.055,136.719 97.662,125.033 106.800 C 118.954 111.553,109.170 121.688,104.049 128.537 C 79.996 160.705,73.675 201.130,86.683 239.600 C 87.464 241.910,88.236 243.980,88.399 244.200 C 88.562 244.420,88.922 245.320,89.199 246.200 C 89.477 247.080,89.938 248.250,90.225 248.800 C 90.512 249.350,91.654 251.630,92.763 253.867 C 99.735 267.929,111.628 283.039,122.690 291.888 C 129.232 297.121,130.334 297.937,134.955 300.975 C 162.749 319.249,199.108 325.214,231.600 316.831 C 242.679 313.973,257.581 307.771,264.437 303.165 C 265.228 302.634,266.626 301.750,267.545 301.200 C 281.277 292.981,296.834 276.723,306.516 260.472 C 307.801 258.316,312.285 249.368,313.268 247.000 C 317.755 236.187,320.012 227.659,322.052 213.800 C 322.644 209.786,322.663 191.320,322.081 187.000 C 316.439 145.126,291.856 110.214,255.800 92.867 C 253.380 91.702,250.950 90.514,250.400 90.227 C 249.850 89.939,248.680 89.477,247.800 89.199 C 246.920 88.922,246.020 88.569,245.800 88.414 C 244.029 87.166,231.746 83.652,223.400 82.005 C 216.329 80.610,195.618 79.374,193.400 80.215 M52.400 84.000 C 52.400 84.220,52.663 84.400,52.984 84.400 C 55.596 84.400,59.848 90.258,58.045 91.372 C 57.850 91.493,57.578 92.192,57.440 92.926 C 57.303 93.659,56.851 94.623,56.438 95.068 C 56.024 95.512,55.377 96.471,55.000 97.200 C 54.623 97.929,54.153 98.722,53.956 98.962 C 53.179 99.911,50.931 103.439,50.688 104.093 C 50.443 104.753,49.200 104.690,49.200 104.018 C 49.200 103.855,48.436 103.379,47.503 102.961 C 46.570 102.542,45.490 101.885,45.103 101.500 C 44.716 101.115,44.229 100.800,44.020 100.800 C 43.811 100.800,42.840 100.260,41.862 99.600 C 40.884 98.940,39.885 98.400,39.642 98.400 C 38.975 98.400,39.108 97.835,40.025 96.763 C 41.484 95.059,45.200 90.012,45.200 89.735 C 45.200 89.588,45.460 89.182,45.778 88.834 C 46.096 88.485,47.109 87.345,48.029 86.300 C 48.949 85.255,50.039 84.400,50.451 84.400 C 50.863 84.400,51.200 84.220,51.200 84.000 C 51.200 83.780,51.470 83.600,51.800 83.600 C 52.130 83.600,52.400 83.780,52.400 84.000 M354.238 87.568 C 355.317 88.760,356.650 90.215,357.200 90.801 C 359.905 93.684,360.260 97.469,358.039 99.759 C 355.354 102.530,351.254 102.309,348.580 99.250 C 347.931 98.508,346.995 97.465,346.500 96.932 C 346.005 96.399,345.600 95.863,345.600 95.739 C 345.600 95.616,345.060 94.833,344.400 94.000 C 342.963 92.185,342.920 91.776,344.100 91.152 C 344.595 90.890,345.900 89.816,347.000 88.765 C 351.697 84.275,351.316 84.338,354.238 87.568 M193.174 107.306 C 194.728 110.775,196.000 113.773,196.000 113.968 C 196.000 114.359,199.963 114.145,202.800 113.600 C 205.776 113.029,211.600 112.662,211.599 113.045 C 211.599 113.240,209.087 115.618,206.017 118.330 L 200.435 123.260 201.179 125.130 C 201.589 126.158,202.931 129.219,204.162 131.932 C 207.027 138.244,207.017 138.314,203.565 136.165 C 202.776 135.674,200.035 134.100,197.474 132.667 L 192.818 130.061 187.564 134.731 C 180.096 141.368,180.587 141.598,182.588 132.400 C 184.259 124.717,184.222 125.231,183.149 124.479 C 182.627 124.113,181.660 123.521,181.000 123.164 C 174.981 119.911,170.927 117.340,171.272 116.995 C 171.395 116.871,174.174 116.515,177.448 116.202 C 180.722 115.889,184.038 115.518,184.819 115.377 L 186.238 115.122 187.303 110.461 C 187.889 107.897,188.575 104.720,188.828 103.400 C 189.627 99.239,189.513 99.137,193.174 107.306 M17.084 139.204 C 15.278 139.747,11.200 141.714,11.200 142.043 C 11.200 142.210,10.821 142.466,10.359 142.613 C 9.285 142.954,4.800 147.228,4.800 147.910 C 4.800 148.193,4.553 148.520,4.250 148.636 C 3.948 148.752,3.366 149.602,2.957 150.524 C 2.549 151.446,2.003 152.420,1.746 152.690 C -0.406 154.940,-0.236 171.562,1.955 173.200 C 2.102 173.310,2.559 174.165,2.972 175.100 C 3.384 176.035,3.880 176.800,4.073 176.800 C 4.267 176.800,4.540 177.115,4.679 177.500 C 5.420 179.540,12.249 184.794,15.000 185.441 C 15.660 185.596,16.303 185.880,16.429 186.071 C 17.377 187.508,31.716 187.474,32.800 186.032 C 32.910 185.886,33.789 185.512,34.753 185.202 C 35.717 184.891,36.712 184.449,36.965 184.219 C 37.218 183.988,37.937 183.510,38.563 183.155 C 40.197 182.229,44.709 177.654,45.297 176.326 C 45.571 175.707,45.907 175.200,46.043 175.200 C 46.180 175.200,46.611 174.345,47.002 173.300 C 47.393 172.255,47.846 171.220,48.009 171.000 C 49.502 168.990,49.521 155.920,48.032 154.800 C 47.886 154.690,47.512 153.811,47.202 152.847 C 46.891 151.883,46.449 150.890,46.219 150.640 C 45.988 150.390,45.469 149.593,45.064 148.870 C 42.349 144.018,41.517 144.077,36.468 149.478 C 32.526 153.695,32.197 154.494,33.788 155.989 C 34.332 156.500,34.984 157.566,35.237 158.359 C 35.490 159.151,35.855 159.971,36.048 160.180 C 36.242 160.389,36.400 161.658,36.400 163.000 C 36.400 164.342,36.242 165.611,36.048 165.820 C 35.855 166.029,35.489 166.852,35.234 167.648 C 34.980 168.445,33.965 169.916,32.978 170.917 C 27.290 176.685,19.978 175.889,14.326 168.886 C 12.317 166.397,12.317 159.603,14.326 157.114 C 16.823 154.020,20.136 151.600,21.875 151.600 C 22.476 151.600,22.638 147.794,22.053 147.432 C 21.861 147.314,21.584 145.909,21.435 144.309 C 20.883 138.361,20.681 138.123,17.084 139.204 M374.000 139.508 C 372.790 139.567,371.440 139.772,371.000 139.963 C 370.560 140.155,369.075 140.630,367.700 141.019 C 366.325 141.408,365.200 141.844,365.200 141.986 C 365.200 142.129,364.472 142.567,363.582 142.960 C 361.740 143.772,356.400 148.844,356.400 149.781 C 356.400 150.121,356.224 150.400,356.008 150.400 C 355.434 150.400,353.367 155.057,352.847 157.520 C 351.938 161.828,352.758 172.800,353.989 172.800 C 354.167 172.800,354.417 173.205,354.543 173.700 C 355.530 177.568,363.145 184.703,367.073 185.440 C 367.803 185.577,368.400 185.827,368.400 185.996 C 368.400 187.368,380.659 187.417,383.715 186.056 C 384.642 185.644,385.882 185.192,386.472 185.052 C 387.062 184.913,387.785 184.557,388.080 184.263 C 388.375 183.968,389.063 183.493,389.608 183.208 C 390.823 182.573,391.331 182.146,393.508 179.935 C 395.962 177.442,396.345 176.948,397.112 175.288 C 397.491 174.469,397.917 173.710,398.060 173.600 C 400.315 171.867,400.315 154.933,398.060 153.200 C 397.917 153.090,397.494 152.337,397.120 151.527 C 395.927 148.946,391.516 144.360,388.923 143.004 C 388.085 142.566,387.302 142.076,387.183 141.915 C 387.064 141.753,385.714 141.302,384.183 140.911 C 382.652 140.520,381.310 140.088,381.200 139.952 C 380.938 139.627,376.792 139.371,374.000 139.508 M378.800 151.903 C 378.800 152.069,379.539 152.436,380.442 152.718 C 382.279 153.291,385.200 155.458,385.200 156.247 C 385.200 156.529,385.450 156.904,385.755 157.080 C 387.272 157.955,388.101 164.034,387.141 167.240 C 386.644 168.900,383.076 173.200,382.197 173.200 C 381.900 173.200,381.392 173.465,381.069 173.788 C 379.655 175.202,372.733 175.190,371.314 173.772 C 371.000 173.457,370.521 173.200,370.250 173.200 C 369.581 173.200,366.400 170.009,366.400 169.338 C 366.400 169.042,366.234 168.800,366.031 168.800 C 364.819 168.800,364.227 162.300,365.178 159.448 C 366.231 156.294,370.560 152.400,373.014 152.400 C 373.336 152.400,373.600 152.220,373.600 152.000 C 373.600 151.774,374.733 151.600,376.200 151.600 C 377.630 151.600,378.800 151.736,378.800 151.903 M274.195 157.200 C 275.018 159.070,276.024 161.320,276.431 162.200 C 276.838 163.080,277.439 164.475,277.765 165.300 C 278.463 167.062,277.793 166.997,286.822 166.175 C 290.596 165.831,293.764 165.630,293.862 165.729 C 293.960 165.827,292.648 167.143,290.946 168.654 C 284.909 174.010,282.998 175.764,282.871 176.066 C 282.758 176.336,284.148 179.669,286.431 184.600 C 286.838 185.480,287.484 186.920,287.865 187.800 C 288.246 188.680,288.627 189.535,288.712 189.700 C 289.161 190.572,287.156 189.644,281.584 186.402 C 278.183 184.422,275.271 182.847,275.113 182.902 C 274.833 182.998,272.875 184.698,266.836 190.091 C 262.704 193.781,262.788 194.193,265.373 182.927 C 265.938 180.467,266.400 178.267,266.400 178.038 C 266.400 177.808,265.095 176.888,263.500 175.993 C 261.905 175.098,260.240 174.151,259.800 173.890 C 259.360 173.629,258.100 172.889,257.000 172.245 C 253.022 169.916,253.033 169.925,253.638 169.589 C 253.947 169.418,256.990 169.064,260.400 168.804 C 269.428 168.113,268.720 168.839,270.626 158.328 C 271.754 152.105,271.931 152.049,274.195 157.200 M124.662 170.300 C 125.437 172.005,126.389 174.120,126.778 175.000 C 129.114 180.291,129.409 180.800,130.143 180.800 C 130.558 180.800,133.956 180.521,137.695 180.180 C 146.198 179.404,145.898 179.114,141.020 183.404 C 139.271 184.942,137.554 186.470,137.205 186.800 C 136.855 187.130,135.882 187.997,135.041 188.726 L 133.514 190.051 134.608 192.526 C 137.010 197.955,137.702 199.482,138.631 201.406 C 140.229 204.713,139.840 204.793,135.366 202.080 C 133.625 201.024,130.803 199.390,129.095 198.449 L 125.989 196.738 122.923 199.469 C 121.237 200.971,119.305 202.708,118.629 203.329 C 114.083 207.504,113.853 207.445,115.040 202.400 C 115.848 198.967,117.152 192.718,117.179 192.149 C 117.197 191.755,109.364 186.906,105.674 185.028 C 103.263 183.800,104.261 183.437,111.964 182.735 C 115.979 182.369,119.341 181.993,119.435 181.899 C 119.583 181.750,120.717 176.636,122.027 170.200 C 122.815 166.326,122.855 166.328,124.662 170.300 M182.122 212.600 L 183.914 216.600 185.657 216.595 C 186.616 216.592,188.898 216.462,190.730 216.305 C 194.790 215.958,194.792 216.080,190.767 219.576 C 186.643 223.159,186.699 223.047,187.810 225.413 C 189.822 229.696,190.719 231.948,190.500 232.166 C 190.249 232.418,183.819 229.051,182.700 228.082 C 181.897 227.387,182.374 227.085,177.491 231.380 C 175.781 232.884,174.269 234.002,174.132 233.865 C 173.933 233.667,174.996 227.379,175.656 224.847 C 175.782 224.363,173.384 222.532,171.600 221.750 C 166.526 219.526,166.693 218.553,172.207 218.208 C 177.614 217.870,177.305 218.149,178.376 212.620 C 179.508 206.777,179.514 206.777,182.122 212.600 M217.286 271.112 C 218.324 273.470,219.670 276.536,220.278 277.925 L 221.384 280.451 224.392 280.201 C 226.046 280.063,228.300 279.794,229.400 279.603 C 236.204 278.423,237.710 278.732,235.299 280.813 C 234.474 281.525,232.540 283.224,231.000 284.590 C 229.460 285.955,227.578 287.619,226.819 288.287 L 225.437 289.501 227.571 294.251 C 228.744 296.863,230.131 299.950,230.652 301.112 C 232.123 304.390,232.454 304.451,224.644 300.000 C 221.170 298.020,218.227 296.400,218.105 296.400 C 217.880 296.400,214.855 298.809,213.910 299.740 C 212.557 301.073,206.823 306.000,206.625 306.000 C 206.244 306.000,206.389 304.321,207.006 301.600 C 208.804 293.658,209.159 291.399,208.680 290.942 C 208.211 290.494,202.691 287.277,198.500 285.009 C 196.427 283.887,195.739 282.802,197.100 282.798 C 200.564 282.790,211.600 281.440,211.600 281.025 C 211.600 280.975,212.067 278.700,212.639 275.968 C 213.210 273.235,213.870 270.055,214.105 268.900 C 214.709 265.942,215.146 266.246,217.286 271.112 M151.880 347.472 C 151.770 347.652,151.361 349.420,150.973 351.400 C 150.585 353.380,150.145 355.090,149.996 355.200 C 149.846 355.310,149.398 357.110,149.000 359.200 C 148.602 361.290,148.152 363.090,148.000 363.200 C 147.848 363.310,147.415 365.110,147.037 367.200 C 146.659 369.290,146.195 371.291,146.005 371.647 C 145.815 372.003,145.367 373.983,145.010 376.047 C 144.652 378.111,144.195 380.103,143.994 380.473 C 143.440 381.489,142.268 390.220,142.540 391.303 C 142.752 392.148,143.194 392.326,146.689 392.975 C 148.840 393.375,150.780 393.843,151.000 394.016 C 151.220 394.189,153.470 394.642,156.000 395.022 C 158.530 395.403,160.783 395.855,161.006 396.028 C 161.229 396.200,164.019 396.664,167.206 397.058 C 170.393 397.451,173.090 397.889,173.200 398.030 C 173.310 398.172,174.683 398.411,176.251 398.563 L 179.102 398.839 179.391 395.719 C 179.550 394.004,179.817 392.420,179.985 392.200 C 180.153 391.980,180.404 390.791,180.542 389.558 L 180.793 387.317 176.273 386.858 C 173.787 386.606,171.269 386.400,170.677 386.400 C 170.084 386.400,169.600 386.257,169.600 386.083 C 169.600 385.908,167.215 385.443,164.300 385.050 C 161.385 384.657,158.940 384.170,158.867 383.968 C 158.793 383.765,158.478 383.600,158.167 383.600 C 157.804 383.600,157.600 383.169,157.600 382.400 C 157.600 381.740,157.759 381.200,157.954 381.200 C 158.149 381.200,158.432 380.210,158.583 379.000 C 158.821 377.091,158.973 376.800,159.729 376.799 C 161.370 376.799,167.400 377.657,168.016 377.980 C 169.443 378.726,173.600 378.915,173.600 378.234 C 173.600 377.879,173.774 377.277,173.986 376.895 C 174.402 376.146,175.600 370.402,175.600 369.157 C 175.600 368.583,175.311 368.400,174.400 368.400 C 173.740 368.400,173.200 368.254,173.200 368.076 C 173.200 367.897,170.497 367.419,167.194 367.012 L 161.187 366.274 161.442 364.837 C 161.582 364.047,161.855 363.229,162.049 363.020 C 162.242 362.811,162.400 362.256,162.400 361.787 C 162.400 361.317,162.484 360.849,162.587 360.747 C 162.820 360.513,171.654 361.710,172.200 362.048 C 172.420 362.185,173.950 362.414,175.600 362.557 C 177.250 362.701,179.526 362.922,180.657 363.050 L 182.714 363.281 183.180 360.341 C 183.437 358.723,183.801 357.040,183.991 356.600 C 185.438 353.239,185.168 352.993,179.600 352.595 C 177.510 352.446,175.710 352.201,175.600 352.049 C 175.490 351.898,173.060 351.446,170.200 351.046 C 167.340 350.645,164.820 350.185,164.600 350.022 C 164.380 349.860,162.400 349.403,160.200 349.006 C 158.000 348.610,156.020 348.152,155.800 347.988 C 155.163 347.514,152.102 347.111,151.880 347.472 M240.608 349.479 C 239.512 349.574,238.522 349.783,238.408 349.945 C 238.293 350.106,237.033 350.557,235.607 350.947 C 234.180 351.337,232.920 351.778,232.807 351.928 C 232.693 352.077,231.886 352.560,231.014 353.000 C 228.973 354.030,224.035 358.964,223.000 361.008 C 222.560 361.877,221.995 362.809,221.743 363.079 C 221.492 363.349,221.064 364.522,220.791 365.685 C 220.518 366.848,220.094 368.053,219.848 368.362 C 219.092 369.310,219.317 379.142,220.128 380.600 C 220.495 381.260,220.796 382.088,220.798 382.440 C 220.808 385.094,227.357 393.124,231.052 395.015 C 231.897 395.447,232.801 395.997,233.061 396.238 C 233.321 396.479,234.674 396.915,236.067 397.206 C 237.460 397.497,238.717 397.910,238.859 398.125 C 239.195 398.630,249.199 398.637,249.541 398.132 C 249.683 397.922,250.835 397.524,252.100 397.247 C 253.365 396.969,254.628 396.530,254.906 396.271 C 255.185 396.012,256.125 395.440,256.996 395.000 C 258.855 394.061,259.180 393.807,261.731 391.299 C 264.300 388.772,264.580 388.420,265.235 386.900 C 265.543 386.185,265.914 385.600,266.060 385.600 C 266.377 385.600,267.600 382.125,267.600 381.226 C 267.600 380.457,266.279 379.857,262.600 378.955 C 261.060 378.578,259.696 378.113,259.570 377.924 C 259.443 377.734,258.452 377.474,257.366 377.345 L 255.393 377.111 254.837 378.656 C 254.531 379.505,253.947 380.435,253.540 380.723 C 253.133 381.010,252.800 381.505,252.800 381.823 C 252.800 382.140,252.612 382.400,252.382 382.400 C 252.152 382.400,251.558 382.805,251.063 383.300 C 247.046 387.313,238.498 385.929,234.537 380.623 C 227.924 371.767,237.298 359.462,247.993 362.960 C 249.973 363.607,250.592 364.008,252.587 365.934 C 253.620 366.931,254.938 366.860,255.350 365.785 C 255.474 365.463,255.765 365.200,255.997 365.200 C 256.444 365.200,260.459 362.540,260.800 362.018 C 260.910 361.850,261.585 361.412,262.300 361.046 C 264.226 360.059,264.054 358.778,261.700 356.578 C 258.797 353.865,258.486 353.627,256.888 352.888 C 256.069 352.509,255.175 351.988,254.900 351.729 C 254.625 351.470,253.365 351.031,252.100 350.753 C 250.835 350.476,249.710 350.123,249.600 349.968 C 249.336 349.596,243.140 349.259,240.608 349.479 M276.400 374.000 C 276.400 374.220,276.028 374.400,275.574 374.400 C 273.614 374.400,271.600 376.934,271.600 379.400 C 271.600 380.927,273.004 383.600,273.806 383.600 C 274.096 383.600,274.408 383.825,274.500 384.100 C 274.709 384.726,279.104 384.788,279.515 384.171 C 279.672 383.935,280.132 383.619,280.538 383.469 C 280.944 383.319,281.370 382.837,281.485 382.398 C 281.599 381.959,281.852 381.600,282.047 381.600 C 282.241 381.600,282.400 380.645,282.400 379.478 C 282.400 376.935,280.526 374.400,278.646 374.400 C 278.071 374.400,277.600 374.220,277.600 374.000 C 277.600 373.780,277.330 373.600,277.000 373.600 C 276.670 373.600,276.400 373.780,276.400 374.000 M190.687 388.453 C 189.855 388.874,188.971 389.664,188.723 390.209 C 188.475 390.754,188.120 391.200,187.936 391.200 C 187.751 391.200,187.600 392.100,187.600 393.200 C 187.600 394.300,187.780 395.200,188.000 395.200 C 188.220 395.200,188.400 395.440,188.400 395.734 C 188.400 397.026,190.915 398.571,193.018 398.571 C 195.212 398.571,195.650 398.324,197.900 395.815 C 198.453 395.198,198.597 390.800,198.064 390.800 C 197.880 390.800,197.531 390.367,197.290 389.837 C 197.025 389.255,196.368 388.769,195.630 388.607 C 194.959 388.459,194.306 388.172,194.181 387.969 C 193.831 387.402,192.361 387.606,190.687 388.453 " stroke="none" fill="#2c5b94" fill-rule="evenodd"></path><path id="path2" d="M100.181 106.100 L 98.600 107.800 100.300 106.219 C 101.881 104.748,102.184 104.400,101.881 104.400 C 101.816 104.400,101.051 105.165,100.181 106.100 M62.514 195.400 C 62.517 196.500,62.595 196.903,62.687 196.295 C 62.779 195.686,62.777 194.786,62.682 194.295 C 62.587 193.803,62.511 194.300,62.514 195.400 M79.701 200.200 C 79.705 201.080,79.787 201.393,79.883 200.895 C 79.979 200.398,79.975 199.678,79.875 199.295 C 79.775 198.913,79.696 199.320,79.701 200.200 M340.093 200.400 C 340.093 201.170,340.175 201.485,340.276 201.100 C 340.376 200.715,340.376 200.085,340.276 199.700 C 340.175 199.315,340.093 199.630,340.093 200.400 M62.514 205.400 C 62.517 206.500,62.595 206.903,62.687 206.295 C 62.779 205.686,62.777 204.786,62.682 204.295 C 62.587 203.803,62.511 204.300,62.514 205.400 M288.975 283.700 L 287.800 285.000 289.100 283.825 C 289.815 283.179,290.400 282.594,290.400 282.525 C 290.400 282.216,290.070 282.488,288.975 283.700 " stroke="none" fill="#7894b9" fill-rule="evenodd"></path><path id="path3" d="M196.878 63.098 C 199.231 63.169,203.191 63.169,205.678 63.099 C 208.165 63.029,206.240 62.971,201.400 62.970 C 196.560 62.970,194.525 63.028,196.878 63.098 M189.300 63.476 C 189.685 63.576,190.315 63.576,190.700 63.476 C 191.085 63.375,190.770 63.293,190.000 63.293 C 189.230 63.293,188.915 63.375,189.300 63.476 M212.100 63.476 C 212.485 63.576,213.115 63.576,213.500 63.476 C 213.885 63.375,213.570 63.293,212.800 63.293 C 212.030 63.293,211.715 63.375,212.100 63.476 M196.311 79.893 C 197.251 79.978,198.691 79.977,199.511 79.891 C 200.330 79.805,199.560 79.736,197.800 79.737 C 196.040 79.739,195.370 79.809,196.311 79.893 M203.511 79.893 C 204.451 79.978,205.891 79.977,206.711 79.891 C 207.530 79.805,206.760 79.736,205.000 79.737 C 203.240 79.739,202.570 79.809,203.511 79.893 M189.300 80.276 C 189.685 80.376,190.315 80.376,190.700 80.276 C 191.085 80.175,190.770 80.093,190.000 80.093 C 189.230 80.093,188.915 80.175,189.300 80.276 M212.100 80.276 C 212.485 80.376,213.115 80.376,213.500 80.276 C 213.885 80.175,213.570 80.093,212.800 80.093 C 212.030 80.093,211.715 80.175,212.100 80.276 M181.200 81.200 C 179.856 81.631,181.308 81.631,183.000 81.200 C 184.078 80.926,184.098 80.894,183.200 80.887 C 182.650 80.883,181.750 81.024,181.200 81.200 M218.433 80.944 C 218.525 81.024,219.410 81.196,220.400 81.327 C 221.602 81.486,221.934 81.447,221.400 81.210 C 220.636 80.872,218.086 80.643,218.433 80.944 M171.400 83.200 C 170.381 83.638,171.432 83.638,172.800 83.200 C 173.604 82.943,173.643 82.877,173.000 82.868 C 172.560 82.862,171.840 83.011,171.400 83.200 M290.800 95.325 C 290.800 95.394,291.385 95.979,292.100 96.625 L 293.400 97.800 292.225 96.500 C 291.130 95.288,290.800 95.016,290.800 95.325 M107.578 99.100 L 106.200 100.600 107.700 99.222 C 108.525 98.463,109.200 97.788,109.200 97.722 C 109.200 97.416,108.862 97.704,107.578 99.100 M295.400 99.600 C 296.259 100.480,297.052 101.200,297.162 101.200 C 297.272 101.200,296.659 100.480,295.800 99.600 C 294.941 98.720,294.148 98.000,294.038 98.000 C 293.928 98.000,294.541 98.720,295.400 99.600 M102.975 103.300 L 101.800 104.600 103.100 103.425 C 104.312 102.330,104.584 102.000,104.275 102.000 C 104.206 102.000,103.621 102.585,102.975 103.300 M98.000 108.600 C 97.028 109.590,96.323 110.400,96.433 110.400 C 96.543 110.400,97.428 109.590,98.400 108.600 C 99.372 107.610,100.077 106.800,99.967 106.800 C 99.857 106.800,98.972 107.610,98.000 108.600 M94.975 112.100 L 93.800 113.400 95.100 112.225 C 96.312 111.130,96.584 110.800,96.275 110.800 C 96.206 110.800,95.621 111.385,94.975 112.100 M114.993 115.300 L 110.600 119.800 115.100 115.407 C 117.575 112.991,119.600 110.966,119.600 110.907 C 119.600 110.618,119.074 111.120,114.993 115.300 M287.800 115.600 C 289.771 117.580,291.473 119.200,291.583 119.200 C 291.693 119.200,290.171 117.580,288.200 115.600 C 286.229 113.620,284.527 112.000,284.417 112.000 C 284.307 112.000,285.829 113.620,287.800 115.600 M90.800 117.200 C 90.330 117.860,90.036 118.400,90.146 118.400 C 90.256 118.400,90.730 117.860,91.200 117.200 C 91.670 116.540,91.964 116.000,91.854 116.000 C 91.744 116.000,91.270 116.540,90.800 117.200 M175.905 116.683 C 176.402 116.779,177.122 116.775,177.505 116.675 C 177.887 116.575,177.480 116.496,176.600 116.501 C 175.720 116.505,175.407 116.587,175.905 116.683 M171.600 117.176 C 171.600 117.383,171.808 117.681,172.062 117.838 C 172.338 118.009,172.415 117.949,172.254 117.688 C 172.087 117.416,172.479 117.191,173.292 117.090 C 174.589 116.929,174.588 116.928,173.100 116.864 C 172.275 116.829,171.600 116.969,171.600 117.176 M203.381 120.100 L 201.800 121.800 203.500 120.219 C 205.081 118.748,205.384 118.400,205.081 118.400 C 205.016 118.400,204.251 119.165,203.381 120.100 M185.381 136.100 L 183.800 137.800 185.500 136.219 C 187.081 134.748,187.384 134.400,187.081 134.400 C 187.016 134.400,186.251 135.165,185.381 136.100 M308.600 143.600 C 308.941 144.260,309.311 144.800,309.421 144.800 C 309.531 144.800,309.341 144.260,309.000 143.600 C 308.659 142.940,308.289 142.400,308.179 142.400 C 308.069 142.400,308.259 142.940,308.600 143.600 M276.428 163.400 C 276.428 163.620,276.686 164.250,277.000 164.800 C 277.314 165.350,277.572 165.620,277.572 165.400 C 277.572 165.180,277.314 164.550,277.000 164.000 C 276.686 163.450,276.428 163.180,276.428 163.400 M291.625 167.369 L 290.250 169.000 291.805 167.513 C 292.660 166.696,293.279 165.962,293.180 165.883 C 293.081 165.803,292.381 166.472,291.625 167.369 M284.705 166.683 C 285.202 166.779,285.922 166.775,286.305 166.675 C 286.687 166.575,286.280 166.496,285.400 166.501 C 284.520 166.505,284.207 166.587,284.705 166.683 M281.105 167.083 C 281.602 167.179,282.322 167.175,282.705 167.075 C 283.087 166.975,282.680 166.896,281.800 166.901 C 280.920 166.905,280.607 166.987,281.105 167.083 M265.105 168.683 C 265.602 168.779,266.322 168.775,266.705 168.675 C 267.087 168.575,266.680 168.496,265.800 168.501 C 264.920 168.505,264.607 168.587,265.105 168.683 M261.505 169.083 C 262.002 169.179,262.722 169.175,263.105 169.075 C 263.487 168.975,263.080 168.896,262.200 168.901 C 261.320 168.905,261.007 168.987,261.505 169.083 M336.856 171.600 C 336.856 171.930,337.011 172.560,337.200 173.000 C 337.417 173.504,337.544 173.578,337.544 173.200 C 337.544 172.870,337.389 172.240,337.200 171.800 C 336.983 171.296,336.856 171.222,336.856 171.600 M283.978 174.300 L 282.600 175.800 284.100 174.422 C 285.496 173.138,285.784 172.800,285.478 172.800 C 285.412 172.800,284.737 173.475,283.978 174.300 M126.428 175.400 C 126.428 175.620,126.686 176.250,127.000 176.800 C 127.314 177.350,127.572 177.620,127.572 177.400 C 127.572 177.180,127.314 176.550,127.000 176.000 C 126.686 175.450,126.428 175.180,126.428 175.400 M120.650 177.250 C 120.317 178.917,120.640 179.240,121.000 177.600 C 121.152 176.909,121.193 176.259,121.091 176.158 C 120.989 176.056,120.791 176.547,120.650 177.250 M128.427 179.824 C 128.378 180.594,129.460 181.714,130.035 181.487 C 130.480 181.311,130.464 181.256,129.961 181.232 C 129.610 181.214,129.127 180.795,128.888 180.300 C 128.649 179.805,128.442 179.591,128.427 179.824 M135.700 180.676 C 136.085 180.776,136.715 180.776,137.100 180.676 C 137.485 180.575,137.170 180.493,136.400 180.493 C 135.630 180.493,135.315 180.575,135.700 180.676 M131.900 181.082 C 132.395 181.178,133.205 181.178,133.700 181.082 C 134.195 180.987,133.790 180.909,132.800 180.909 C 131.810 180.909,131.405 180.987,131.900 181.082 M116.100 182.676 C 116.485 182.776,117.115 182.776,117.500 182.676 C 117.885 182.575,117.570 182.493,116.800 182.493 C 116.030 182.493,115.715 182.575,116.100 182.676 M273.375 183.700 L 272.200 185.000 273.500 183.825 C 274.215 183.179,274.800 182.594,274.800 182.525 C 274.800 182.216,274.470 182.488,273.375 183.700 M338.893 183.600 C 338.893 184.370,338.975 184.685,339.076 184.300 C 339.176 183.915,339.176 183.285,339.076 182.900 C 338.975 182.515,338.893 182.830,338.893 183.600 M112.300 183.082 C 112.795 183.178,113.605 183.178,114.100 183.082 C 114.595 182.987,114.190 182.909,113.200 182.909 C 112.210 182.909,111.805 182.987,112.300 183.082 M137.775 185.700 L 136.600 187.000 137.900 185.825 C 139.112 184.730,139.384 184.400,139.075 184.400 C 139.006 184.400,138.421 184.985,137.775 185.700 M339.293 186.400 C 339.293 187.170,339.375 187.485,339.476 187.100 C 339.576 186.715,339.576 186.085,339.476 185.700 C 339.375 185.315,339.293 185.630,339.293 186.400 M286.428 185.800 C 286.428 186.020,286.686 186.650,287.000 187.200 C 287.314 187.750,287.572 188.020,287.572 187.800 C 287.572 187.580,287.314 186.950,287.000 186.400 C 286.686 185.850,286.428 185.580,286.428 185.800 M63.293 187.200 C 63.293 187.970,63.375 188.285,63.476 187.900 C 63.576 187.515,63.576 186.885,63.476 186.500 C 63.375 186.115,63.293 186.430,63.293 187.200 M134.027 188.971 C 133.525 189.506,133.209 190.181,133.326 190.471 C 133.489 190.882,133.544 190.871,133.568 190.426 C 133.586 190.110,133.991 189.435,134.470 188.926 C 134.948 188.417,135.249 188.000,135.139 188.000 C 135.029 188.000,134.529 188.437,134.027 188.971 M322.514 189.800 C 322.517 190.900,322.595 191.303,322.687 190.695 C 322.779 190.086,322.777 189.186,322.682 188.695 C 322.587 188.203,322.511 188.700,322.514 189.800 M265.978 190.300 L 264.600 191.800 266.100 190.422 C 267.496 189.138,267.784 188.800,267.478 188.800 C 267.412 188.800,266.737 189.475,265.978 190.300 M62.928 192.000 C 62.928 193.430,63.001 194.015,63.089 193.300 C 63.178 192.585,63.178 191.415,63.089 190.700 C 63.001 189.985,62.928 190.570,62.928 192.000 M322.968 200.200 C 322.968 204.600,323.026 206.455,323.098 204.321 C 323.170 202.188,323.170 198.588,323.099 196.321 C 323.027 194.055,322.968 195.800,322.968 200.200 M79.731 196.200 C 79.733 197.740,79.805 198.321,79.892 197.491 C 79.979 196.661,79.977 195.401,79.889 194.691 C 79.800 193.981,79.729 194.660,79.731 196.200 M62.540 200.400 C 62.540 202.270,62.609 203.035,62.693 202.100 C 62.777 201.165,62.777 199.635,62.693 198.700 C 62.609 197.765,62.540 198.530,62.540 200.400 M119.775 201.700 L 118.600 203.000 119.900 201.825 C 121.112 200.730,121.384 200.400,121.075 200.400 C 121.006 200.400,120.421 200.985,119.775 201.700 M79.734 204.400 C 79.734 206.050,79.805 206.725,79.891 205.900 C 79.978 205.075,79.978 203.725,79.891 202.900 C 79.805 202.075,79.734 202.750,79.734 204.400 M62.928 208.800 C 62.928 210.230,63.001 210.815,63.089 210.100 C 63.178 209.385,63.178 208.215,63.089 207.500 C 63.001 206.785,62.928 207.370,62.928 208.800 M339.693 209.200 C 339.693 209.970,339.775 210.285,339.876 209.900 C 339.976 209.515,339.976 208.885,339.876 208.500 C 339.775 208.115,339.693 208.430,339.693 209.200 M322.509 210.800 C 322.509 211.790,322.587 212.195,322.682 211.700 C 322.778 211.205,322.778 210.395,322.682 209.900 C 322.587 209.405,322.509 209.810,322.509 210.800 M63.293 213.600 C 63.293 214.370,63.375 214.685,63.476 214.300 C 63.576 213.915,63.576 213.285,63.476 212.900 C 63.375 212.515,63.293 212.830,63.293 213.600 M182.800 215.489 C 182.800 215.721,183.171 216.336,183.624 216.856 L 184.447 217.800 183.745 216.600 C 182.820 215.021,182.800 214.997,182.800 215.489 M338.893 216.800 C 338.893 217.570,338.975 217.885,339.076 217.500 C 339.176 217.115,339.176 216.485,339.076 216.100 C 338.975 215.715,338.893 216.030,338.893 216.800 M189.905 216.683 C 190.402 216.779,191.122 216.775,191.505 216.675 C 191.887 216.575,191.480 216.496,190.600 216.501 C 189.720 216.505,189.407 216.587,189.905 216.683 M191.978 217.900 L 190.600 219.400 192.100 218.022 C 193.496 216.738,193.784 216.400,193.478 216.400 C 193.412 216.400,192.737 217.075,191.978 217.900 M186.305 217.083 C 186.802 217.179,187.522 217.175,187.905 217.075 C 188.287 216.975,187.880 216.896,187.000 216.901 C 186.120 216.905,185.807 216.987,186.305 217.083 M80.828 218.433 C 80.844 218.965,81.019 219.760,81.219 220.200 C 81.471 220.758,81.507 220.515,81.338 219.400 C 81.055 217.543,80.787 217.036,80.828 218.433 M170.305 218.683 C 170.802 218.779,171.522 218.775,171.905 218.675 C 172.287 218.575,171.880 218.496,171.000 218.501 C 170.120 218.505,169.807 218.587,170.305 218.683 M180.749 227.900 C 180.252 228.533,180.266 228.548,180.895 228.055 C 181.277 227.756,181.871 227.619,182.216 227.751 C 182.576 227.889,182.738 227.823,182.597 227.595 C 182.219 226.984,181.356 227.127,180.749 227.900 M174.622 230.622 C 174.472 231.425,174.428 232.162,174.526 232.260 C 174.624 232.357,174.827 231.781,174.978 230.978 C 175.128 230.175,175.172 229.438,175.074 229.340 C 174.976 229.243,174.773 229.819,174.622 230.622 M177.375 230.900 L 176.200 232.200 177.500 231.025 C 178.712 229.930,178.984 229.600,178.675 229.600 C 178.606 229.600,178.021 230.185,177.375 230.900 M66.456 232.800 C 66.456 233.130,66.611 233.760,66.800 234.200 C 67.017 234.704,67.144 234.778,67.144 234.400 C 67.144 234.070,66.989 233.440,66.800 233.000 C 66.583 232.496,66.456 232.422,66.456 232.800 M68.448 240.000 C 68.442 240.330,68.683 241.140,68.986 241.800 C 69.693 243.345,69.703 242.626,69.000 240.800 C 68.703 240.030,68.455 239.670,68.448 240.000 M86.618 241.300 C 86.768 241.795,87.055 242.376,87.256 242.591 C 87.457 242.806,87.419 242.401,87.172 241.691 C 86.665 240.238,86.197 239.908,86.618 241.300 M90.428 250.200 C 90.428 250.420,90.686 251.050,91.000 251.600 C 91.314 252.150,91.572 252.420,91.572 252.200 C 91.572 251.980,91.314 251.350,91.000 250.800 C 90.686 250.250,90.428 249.980,90.428 250.200 M310.600 253.200 C 310.259 253.860,310.069 254.400,310.179 254.400 C 310.289 254.400,310.659 253.860,311.000 253.200 C 311.341 252.540,311.531 252.000,311.421 252.000 C 311.311 252.000,310.941 252.540,310.600 253.200 M74.028 255.000 C 74.028 255.220,74.286 255.850,74.600 256.400 C 74.914 256.950,75.172 257.220,75.172 257.000 C 75.172 256.780,74.914 256.150,74.600 255.600 C 74.286 255.050,74.028 254.780,74.028 255.000 M76.000 259.353 C 76.000 259.782,77.190 262.000,77.421 262.000 C 77.531 262.000,77.323 261.415,76.959 260.700 C 76.217 259.240,76.000 258.936,76.000 259.353 M86.800 278.000 C 87.270 278.660,87.744 279.200,87.854 279.200 C 87.964 279.200,87.670 278.660,87.200 278.000 C 86.730 277.340,86.256 276.800,86.146 276.800 C 86.036 276.800,86.330 277.340,86.800 278.000 M108.800 278.925 C 108.800 278.994,109.385 279.579,110.100 280.225 L 111.400 281.400 110.225 280.100 C 109.130 278.888,108.800 278.616,108.800 278.925 M220.412 279.451 C 220.390 280.280,221.534 280.856,222.874 280.691 L 224.200 280.528 222.720 280.464 C 221.783 280.423,221.090 280.143,220.832 279.700 C 220.608 279.315,220.419 279.203,220.412 279.451 M231.775 283.300 L 230.600 284.600 231.900 283.425 C 233.112 282.330,233.384 282.000,233.075 282.000 C 233.006 282.000,232.421 282.585,231.775 283.300 M202.500 282.676 C 202.885 282.776,203.515 282.776,203.900 282.676 C 204.285 282.575,203.970 282.493,203.200 282.493 C 202.430 282.493,202.115 282.575,202.500 282.676 M199.105 283.083 C 199.602 283.179,200.322 283.175,200.705 283.075 C 201.087 282.975,200.680 282.896,199.800 282.901 C 198.920 282.905,198.607 282.987,199.105 283.083 M287.781 285.300 L 286.200 287.000 287.900 285.419 C 289.481 283.948,289.784 283.600,289.481 283.600 C 289.416 283.600,288.651 284.365,287.781 285.300 M227.775 286.900 L 226.600 288.200 227.900 287.025 C 228.615 286.379,229.200 285.794,229.200 285.725 C 229.200 285.416,228.870 285.688,227.775 286.900 M96.000 289.800 C 96.746 290.570,97.447 291.200,97.557 291.200 C 97.667 291.200,97.146 290.570,96.400 289.800 C 95.654 289.030,94.953 288.400,94.843 288.400 C 94.733 288.400,95.254 289.030,96.000 289.800 M306.175 290.100 L 305.000 291.400 306.300 290.225 C 307.512 289.130,307.784 288.800,307.475 288.800 C 307.406 288.800,306.821 289.385,306.175 290.100 M99.583 293.700 C 100.564 294.745,101.419 295.600,101.483 295.600 C 101.784 295.600,101.466 295.241,99.700 293.583 L 97.800 291.800 99.583 293.700 M299.400 297.200 C 296.767 299.840,294.703 302.000,294.813 302.000 C 294.923 302.000,297.167 299.840,299.800 297.200 C 302.433 294.560,304.497 292.400,304.387 292.400 C 304.277 292.400,302.033 294.560,299.400 297.200 M213.775 299.300 L 212.600 300.600 213.900 299.425 C 214.615 298.779,215.200 298.194,215.200 298.125 C 215.200 297.816,214.870 298.088,213.775 299.300 M106.200 300.400 C 107.283 301.500,108.260 302.400,108.370 302.400 C 108.480 302.400,107.683 301.500,106.600 300.400 C 105.517 299.300,104.540 298.400,104.430 298.400 C 104.320 298.400,105.117 299.300,106.200 300.400 M209.775 302.900 L 208.600 304.200 209.900 303.025 C 210.615 302.379,211.200 301.794,211.200 301.725 C 211.200 301.416,210.870 301.688,209.775 302.900 M206.647 304.064 C 206.330 305.652,206.622 305.968,207.510 304.998 C 208.164 304.283,208.164 304.271,207.500 304.771 C 206.862 305.251,206.822 305.188,207.050 304.049 C 207.188 303.362,207.210 302.800,207.100 302.800 C 206.990 302.800,206.786 303.369,206.647 304.064 M146.800 308.196 C 146.800 308.470,149.249 309.684,149.432 309.501 C 149.519 309.414,148.962 309.044,148.195 308.678 C 147.428 308.312,146.800 308.095,146.800 308.196 M118.000 310.146 C 118.000 310.256,118.540 310.730,119.200 311.200 C 119.860 311.670,120.400 311.964,120.400 311.854 C 120.400 311.744,119.860 311.270,119.200 310.800 C 118.540 310.330,118.000 310.036,118.000 310.146 M232.600 316.800 C 232.096 317.017,232.022 317.144,232.400 317.144 C 232.730 317.144,233.360 316.989,233.800 316.800 C 234.304 316.583,234.378 316.456,234.000 316.456 C 233.670 316.456,233.040 316.611,232.600 316.800 M191.305 320.687 C 191.914 320.779,192.814 320.777,193.305 320.682 C 193.797 320.587,193.300 320.511,192.200 320.514 C 191.100 320.517,190.697 320.595,191.305 320.687 M209.705 320.687 C 210.314 320.779,211.214 320.777,211.705 320.682 C 212.197 320.587,211.700 320.511,210.600 320.514 C 209.500 320.517,209.097 320.595,209.705 320.687 M198.319 321.098 C 200.144 321.172,203.024 321.172,204.719 321.097 C 206.414 321.022,204.920 320.961,201.400 320.962 C 197.880 320.962,196.494 321.024,198.319 321.098 M185.900 337.082 C 186.395 337.178,187.205 337.178,187.700 337.082 C 188.195 336.987,187.790 336.909,186.800 336.909 C 185.810 336.909,185.405 336.987,185.900 337.082 M215.105 337.083 C 215.602 337.179,216.322 337.175,216.705 337.075 C 217.087 336.975,216.680 336.896,215.800 336.901 C 214.920 336.905,214.607 336.987,215.105 337.083 M189.505 337.483 C 190.002 337.579,190.722 337.575,191.105 337.475 C 191.487 337.375,191.080 337.296,190.200 337.301 C 189.320 337.305,189.007 337.387,189.505 337.483 M211.905 337.483 C 212.402 337.579,213.122 337.575,213.505 337.475 C 213.887 337.375,213.480 337.296,212.600 337.301 C 211.720 337.305,211.407 337.387,211.905 337.483 M198.482 337.896 C 199.958 337.973,202.478 337.973,204.082 337.897 C 205.687 337.821,204.480 337.758,201.400 337.758 C 198.320 337.757,197.007 337.819,198.482 337.896 " stroke="none" fill="#94acc8" fill-rule="evenodd"></path><path id="path4" d="M197.091 62.689 C 197.801 62.777,199.061 62.779,199.891 62.692 C 200.721 62.605,200.140 62.533,198.600 62.531 C 197.060 62.529,196.381 62.600,197.091 62.689 M202.691 62.689 C 203.401 62.777,204.661 62.779,205.491 62.692 C 206.321 62.605,205.740 62.533,204.200 62.531 C 202.660 62.529,201.981 62.600,202.691 62.689 M185.700 63.476 C 186.085 63.576,186.715 63.576,187.100 63.476 C 187.485 63.375,187.170 63.293,186.400 63.293 C 185.630 63.293,185.315 63.375,185.700 63.476 M215.700 63.476 C 216.085 63.576,216.715 63.576,217.100 63.476 C 217.485 63.375,217.170 63.293,216.400 63.293 C 215.630 63.293,215.315 63.375,215.700 63.476 M188.705 80.683 C 189.202 80.779,189.922 80.775,190.305 80.675 C 190.687 80.575,190.280 80.496,189.400 80.501 C 188.520 80.505,188.207 80.587,188.705 80.683 M212.705 80.683 C 213.202 80.779,213.922 80.775,214.305 80.675 C 214.687 80.575,214.280 80.496,213.400 80.501 C 212.520 80.505,212.207 80.587,212.705 80.683 M106.975 99.300 L 105.800 100.600 107.100 99.425 C 108.312 98.330,108.584 98.000,108.275 98.000 C 108.206 98.000,107.621 98.585,106.975 99.300 M294.400 98.125 C 294.400 98.194,294.985 98.779,295.700 99.425 L 297.000 100.600 295.825 99.300 C 294.730 98.088,294.400 97.816,294.400 98.125 M115.192 115.500 L 111.400 119.400 115.300 115.608 C 118.922 112.086,119.382 111.600,119.092 111.600 C 119.033 111.600,117.278 113.355,115.192 115.500 M285.400 113.600 C 286.483 114.700,287.460 115.600,287.570 115.600 C 287.680 115.600,286.883 114.700,285.800 113.600 C 284.717 112.500,283.740 111.600,283.630 111.600 C 283.520 111.600,284.317 112.500,285.400 113.600 M204.705 113.483 C 205.202 113.579,205.922 113.575,206.305 113.475 C 206.687 113.375,206.280 113.296,205.400 113.301 C 204.520 113.305,204.207 113.387,204.705 113.483 M289.800 118.000 C 290.883 119.100,291.860 120.000,291.970 120.000 C 292.080 120.000,291.283 119.100,290.200 118.000 C 289.117 116.900,288.140 116.000,288.030 116.000 C 287.920 116.000,288.717 116.900,289.800 118.000 M291.375 168.100 L 290.200 169.400 291.500 168.225 C 292.215 167.579,292.800 166.994,292.800 166.925 C 292.800 166.616,292.470 166.888,291.375 168.100 M254.705 169.483 C 255.202 169.579,255.922 169.575,256.305 169.475 C 256.687 169.375,256.280 169.296,255.400 169.301 C 254.520 169.305,254.207 169.387,254.705 169.483 M63.293 184.000 C 63.293 184.770,63.375 185.085,63.476 184.700 C 63.576 184.315,63.576 183.685,63.476 183.300 C 63.375 182.915,63.293 183.230,63.293 184.000 M105.500 183.482 C 105.995 183.578,106.805 183.578,107.300 183.482 C 107.795 183.387,107.390 183.309,106.400 183.309 C 105.410 183.309,105.005 183.387,105.500 183.482 M80.501 188.200 C 80.505 189.080,80.587 189.393,80.683 188.895 C 80.779 188.398,80.775 187.678,80.675 187.295 C 80.575 186.913,80.496 187.320,80.501 188.200 M322.493 194.000 C 322.493 194.770,322.575 195.085,322.676 194.700 C 322.776 194.315,322.776 193.685,322.676 193.300 C 322.575 192.915,322.493 193.230,322.493 194.000 M340.128 196.800 C 340.128 198.230,340.201 198.815,340.289 198.100 C 340.378 197.385,340.378 196.215,340.289 195.500 C 340.201 194.785,340.128 195.370,340.128 196.800 M340.128 204.000 C 340.128 205.430,340.201 206.015,340.289 205.300 C 340.378 204.585,340.378 203.415,340.289 202.700 C 340.201 201.985,340.128 202.570,340.128 204.000 M322.493 206.800 C 322.493 207.570,322.575 207.885,322.676 207.500 C 322.776 207.115,322.776 206.485,322.676 206.100 C 322.575 205.715,322.493 206.030,322.493 206.800 M80.509 212.400 C 80.509 213.390,80.587 213.795,80.682 213.300 C 80.778 212.805,80.778 211.995,80.682 211.500 C 80.587 211.005,80.509 211.410,80.509 212.400 M235.345 279.091 L 236.490 279.262 235.345 280.531 L 234.200 281.800 235.486 280.639 C 236.931 279.333,236.865 278.771,235.276 278.860 L 234.200 278.920 235.345 279.091 M231.100 279.482 C 231.595 279.578,232.405 279.578,232.900 279.482 C 233.395 279.387,232.990 279.309,232.000 279.309 C 231.010 279.309,230.605 279.387,231.100 279.482 M114.783 284.900 C 116.441 286.666,116.800 286.984,116.800 286.683 C 116.800 286.619,115.945 285.764,114.900 284.783 L 113.000 283.000 114.783 284.900 M99.200 293.800 C 99.946 294.570,100.647 295.200,100.757 295.200 C 100.867 295.200,100.346 294.570,99.600 293.800 C 98.854 293.030,98.153 292.400,98.043 292.400 C 97.933 292.400,98.454 293.030,99.200 293.800 M302.187 294.900 L 299.800 297.400 302.300 295.013 C 303.675 293.699,304.800 292.574,304.800 292.513 C 304.800 292.217,304.405 292.578,302.187 294.900 M297.381 299.700 L 295.800 301.400 297.500 299.819 C 299.081 298.348,299.384 298.000,299.081 298.000 C 299.016 298.000,298.251 298.765,297.381 299.700 M218.500 319.476 C 218.885 319.576,219.515 319.576,219.900 319.476 C 220.285 319.375,219.970 319.293,219.200 319.293 C 218.430 319.293,218.115 319.375,218.500 319.476 M196.691 320.689 C 197.401 320.777,198.661 320.779,199.491 320.692 C 200.321 320.605,199.740 320.533,198.200 320.531 C 196.660 320.529,195.981 320.600,196.691 320.689 M203.091 320.689 C 203.801 320.777,205.061 320.779,205.891 320.692 C 206.721 320.605,206.140 320.533,204.600 320.531 C 203.060 320.529,202.381 320.600,203.091 320.689 " stroke="none" fill="#5c7dac" fill-rule="evenodd"></path></g></svg>